<svg width="56" height="56" viewBox="0 0 56 56" fill="none" xmlns="http://www.w3.org/2000/svg">
<g clip-path="url(#clip0_2127_1080)">
<path d="M56 28C56 43.464 43.464 56 28 56C12.536 56 0 43.464 0 28C0 12.536 12.536 0 28 0C43.464 0 56 12.536 56 28Z" fill="#030305"/>
<mask id="mask0_2127_1080" style="mask-type:alpha" maskUnits="userSpaceOnUse" x="0" y="0" width="56" height="56">
<path d="M56 28C56 43.464 43.464 56 28 56C12.536 56 0 43.464 0 28C0 12.536 12.536 0 28 0C43.464 0 56 12.536 56 28Z" fill="#0B1524"/>
</mask>
<g mask="url(#mask0_2127_1080)">
<path d="M28 0C43.464 0 56 12.536 56 28C56 43.464 43.464 56 28 56C12.536 56 0 43.464 0 28C0 12.536 12.536 0 28 0ZM28 1.75C13.5025 1.75 1.75 13.5025 1.75 28C1.75 42.4975 13.5025 54.25 28 54.25C42.4975 54.25 54.25 42.4975 54.25 28C54.25 13.5025 42.4975 1.75 28 1.75Z" fill="#6F708F"/>
</g>
<path d="M42.2213 60.2516C42.2213 61.6247 41.6654 62.8282 40.7733 63.7504C40.7665 63.7575 40.7617 63.7663 40.7595 63.7759L40.7478 63.8276C40.7391 63.8656 40.7728 63.8998 40.8108 63.8914C43.3986 63.3254 45.5 61.2969 45.5 58.6271V44.8837C45.5 40.821 43.0394 37.0669 39.045 35.0356L22.9164 26.8335L19.7215 28.5006L35.7662 36.6601C39.7606 38.6914 42.2213 42.4455 42.2213 46.5082V60.2516Z" fill="#6F708F"/>
<path d="M37.713 62.5981V48.8547C37.713 44.792 35.2523 41.038 31.2579 39.0066L15.2132 30.8471L18.4081 29.18L34.5367 37.3821C38.5311 39.4134 40.9917 43.1675 40.9917 47.2302V60.9736C40.9917 63.6434 38.8903 65.6719 36.3025 66.2379C36.2645 66.2463 36.2309 66.2121 36.2395 66.1741L36.2512 66.1224C36.2534 66.1128 36.2582 66.104 36.2651 66.0969C37.1571 65.1747 37.713 63.9712 37.713 62.5981Z" fill="#6F708F"/>
<path fill-rule="evenodd" clip-rule="evenodd" d="M10.5 33.3056L13.7366 31.6168L29.8651 39.8189C33.8595 41.8502 36.3201 45.6043 36.3201 49.6669V63.4781L36.3197 63.4779C36.2647 67.6069 31.1749 70.1729 27.0987 68.0999L12.4809 60.6661L10.5 59.6847V33.3056ZM33.0414 51.3343V59.3129L22.1805 53.7896V39.2457L26.5864 41.4863C30.5808 43.5176 33.0414 47.2717 33.0414 51.3343ZM18.0821 37.1615L19.7215 37.9952V55.0394L19.8936 55.1245L33.0414 61.8108V63.3543L18.1033 55.7575L18.0821 55.7686V37.1615ZM15.4181 35.8067V57.0796L15.4952 57.1184L15.4181 57.1586L33.0213 66.1106C32.8741 66.8246 31.9493 67.2319 31.1971 66.8494L13.7787 57.9913V34.973L15.4181 35.8067Z" fill="#6F708F"/>
<path d="M32.0332 21L36.3601 14.8409V16.4617L32.3644 10.5H34.845L36.0007 12.2758C36.1792 12.5483 36.3389 12.8091 36.4799 13.0581C36.6255 13.307 36.7618 13.5513 36.8886 13.7909C37.0201 14.0258 37.1564 14.2654 37.2973 14.5097H36.7336C36.8745 14.2654 37.0108 14.0258 37.1423 13.7909C37.2738 13.5513 37.4124 13.307 37.5581 13.0581C37.7037 12.8091 37.8658 12.5483 38.0443 12.2758L39.2282 10.5H41.6383L37.7131 16.3419V14.8057L41.9483 21H39.4255L37.9527 18.7872C37.7977 18.5477 37.6567 18.3292 37.5299 18.1319C37.4077 17.9299 37.2903 17.7349 37.1775 17.547C37.0695 17.3591 36.952 17.1594 36.8252 16.948H37.1564C37.0342 17.1547 36.9168 17.3544 36.804 17.547C36.6913 17.7349 36.5715 17.9299 36.4446 18.1319C36.3225 18.3292 36.1792 18.5477 36.0148 18.7872L34.4997 21H32.0332Z" fill="#6F708F"/>
<path d="M24.2604 21V10.5H31.3849V12.3252H26.4168V15.0664H30.9832V16.8493H26.4168V21H24.2604Z" fill="#6F708F"/>
<path d="M17.6999 21H14.9797V19.1607H17.5871C18.2824 19.1607 18.8579 19.0339 19.3136 18.7802C19.774 18.5265 20.117 18.146 20.3425 17.6386C20.5727 17.1312 20.6878 16.4993 20.6878 15.743C20.6878 14.9866 20.5727 14.357 20.3425 13.8544C20.117 13.347 19.7764 12.9688 19.3207 12.7198C18.865 12.4661 18.2942 12.3393 17.6083 12.3393H14.9304V10.5H17.7351C18.7921 10.5 19.7012 10.7114 20.4623 11.1342C21.2281 11.557 21.8176 12.1607 22.2311 12.9453C22.6445 13.7299 22.8512 14.6624 22.8512 15.743C22.8512 16.8282 22.6445 17.7631 22.2311 18.5477C21.8176 19.3322 21.2257 19.9383 20.4552 20.3658C19.6895 20.7886 18.771 21 17.6999 21ZM16.1566 10.5V21H14.0002V10.5H16.1566Z" fill="#6F708F"/>
</g>
<defs>
<clipPath id="clip0_2127_1080">
<rect width="56" height="56" rx="28" fill="white"/>
</clipPath>
</defs>
</svg>
